<svg xmlns="http://www.w3.org/2000/svg" viewBox="0 0 158.3 224.56"><defs><style>.cls-1{fill:#e94265;}</style></defs><title>2Fichier 1</title><g id="Calque_2" data-name="Calque 2"><g id="Calque_6" data-name="Calque 6"><path class="cls-1" d="M124.32,102.1l.61-1.35c.91-2.07,1.72-4.19,2.43-6.33C131.12,83,134.79,71.49,138.26,60c2.94-9.8,6.1-19.71,8.15-29.75,1.18-5.84,1.69-12.36-.35-18.09-2.17-6.1-7.05-10.9-13.82-11s-12.56,4.19-17,8.71C108,17.2,102.62,26.53,98,35.73,92.68,46.26,87.79,57,81.43,66.92q-1.55,2.43-3.21,4.77c-.49.69-1,1.36-1.5,2,1.42-1.94-.41.49-.77.92-.63.74-1.27,1.47-1.94,2.17q-.93-10.48-1.79-21c-.65-7.86-1.3-15.73-1.75-23.61a99.24,99.24,0,0,0-.78-10.61,30.21,30.21,0,0,0-7.1-14.95A19.1,19.1,0,0,0,48.71,0c-5.79,0-11,3.14-14.52,7.57-4.56,5.72-7,12.84-9,19.81-4.58,16.08-6.79,32.88-8.85,49.43-1.44,11.62-2.61,23.26-3.41,34.94v.12c-.28,4.07,3.77,8,7.78,7.78a8,8,0,0,0,7.78-7.78h0C29,103.93,29.8,96,30.63,88.1c.4-3.69.81-7.37,1.27-11.06.22-1.81.45-3.63.68-5.44,0-.1.27-2,.1-.71s.08-.62.1-.72c.16-1.18.32-2.36.49-3.53,1.12-7.78,2.41-15.53,4-23.22a131.43,131.43,0,0,1,5.41-19.58,10.58,10.58,0,0,1,.68-1.73s-.88,1.94-.15.41c.1-.23.21-.46.31-.68A28.07,28.07,0,0,1,46,17.64c-.65.93,1.27-1.22,1.41-1.47.43-.77-1.21.59.17-.14.1-.05,1.8-.9.6-.4s.47-.08.61-.12c1.29-.42-.33,0-.53.06h.5c.87,0,.68,0-.55-.13.39-.12,1.11.35,1.48.4-1.32-.18-1-.53-.41-.14s.92.59,1.38.86c-1.37-.83-.59-.5-.26-.14s.83.85,1.24,1.27.67,1.11-.08-.13c.27.45.59.87.87,1.33s.51,1,.78,1.43c1,1.69-.33-1.29.29.63.36,1.13.72,2.23,1,3.4,0-.08.34,2.24.22,1.13s.06,1.32,0,1.21c.05,1.14.06,2.28.11,3.42.34,7.32,1,14.62,1.55,21.92q.94,11.76,2,23.5c.4,4.51.28,9.46,2.56,13.53a11.79,11.79,0,0,0,10.71,6.18c5.18-.19,9.63-3.54,13.1-7.1C98.53,74,105.23,54.45,114.64,37.5a111.5,111.5,0,0,1,8.25-12.9c-1,1.37.5-.61.85-1,.53-.64,1.07-1.26,1.63-1.87,1.2-1.29,2.48-2.44,3.79-3.6,1-.87-.55.5-.6.45l1-.67c.49-.33,1-.62,1.53-.92.18-.11.41-.18.59-.3,1-.71-1.68.49-.85.34a10.74,10.74,0,0,0,1.5-.46c1.66-.56-2.15.45-.54.08,1.36-.31.86,1.15-.65-.18a5.16,5.16,0,0,0,1.08.3c-.66.17-2.08-1.12-.68-.17.64.43-1.74-1.55-.53-.36.12.12.32.46.47.53-.12-.05-1.07-1.74-.78-1a7.06,7.06,0,0,0,.64,1.09c.89,1.33-.57-2.06-.1-.21a12,12,0,0,0,.68,2.8c-.64-.72-.18-2.11-.12-.75,0,.23,0,.46.06.68.05.72.06,1.44.05,2.16s0,1.26-.08,1.9c0,.4-.29,2.46-.07.95s-.12.63-.19,1c-.18.94-.4,1.87-.62,2.8-1.17,4.83-2.47,9.64-3.82,14.42-2.94,10.47-6.13,20.86-9.43,31.22q-2,6.41-4.13,12.8-.8,2.44-1.6,4.88c-.2.6-.49,1.21-.63,1.81-.22.92.91-2,.21-.5-.23.47-.43,1-.65,1.43-1.51,3.33-3.25,6.6-4.51,10-1.48,4.06,1.69,8.38,5.44,9.57.91.29,1.81.62,2.71,1s1.79.69,2.68,1l.82.33c1.1.45-.8-.33-.81-.34a9.81,9.81,0,0,0,2.23,1,91.07,91.07,0,0,1,8.39,4.33q2.22,1.3,4.35,2.76c.71.49,1.41,1,2.11,1.52-1.79-1.3.82.7,1.25,1.07A41.26,41.26,0,0,1,139,130c.56.63,1.6,2.05.53.54.57.8,1.14,1.59,1.64,2.44.19.32,1.19,1.75,1.11,2.13,0-.13-.54-1.63-.24-.54.13.45.32.89.45,1.35a6.64,6.64,0,0,1,.51,2.32c0-.06-.1-2-.12-.64,0,.49,0,1,0,1.47s-.08,1-.08,1.49c0,1.53,0-.58.08-.53a18.53,18.53,0,0,1-.48,2.64,50.33,50.33,0,0,1-1.79,6.15c-.31.88-.7,1.74-1,2.62-.4,1.19.78-1.68-.09.21l-.68,1.5q-1.53,3.26-3.32,6.37a107.31,107.31,0,0,1-8.14,12.23c.9-1.18-.65.8-.67.82l-1,1.19c-.82,1-1.66,2-2.51,2.94q-2.82,3.21-5.87,6.21-2.62,2.59-5.43,5c-.87.76-1.76,1.5-2.66,2.23,0,0-2,1.56-.84.67-1.72,1.3-3.48,2.55-5.27,3.73a77.9,77.9,0,0,1-10.4,5.73c-.55.25-1.09.49-1.64.7,2.35-.91-.18.07-.73.3-1.65.66-3.3,1.31-5,1.91-3.16,1.16-6.36,2.2-9.61,3.09a99.32,99.32,0,0,1-10.38,2.23c-1.62.27.22-.16.27,0s-.91.11-1,.12c-.86.1-1.72.18-2.59.25-1.9.14-3.8.21-5.71.18-1.64,0-3.27-.16-4.91-.3-.56,0-1.79,0,.27.06a9.45,9.45,0,0,1-1.28-.2c-.94-.16-1.87-.34-2.8-.56a43.56,43.56,0,0,1-5-1.47l-1-.37c-1.74-.61,1.57.76-.1,0-.9-.42-1.79-.83-2.66-1.29a43.33,43.33,0,0,1-4.46-2.74c-.3-.21-1.83-1.39-.25-.14l-.9-.73c-.91-.75-1.79-1.54-2.64-2.36a56.61,56.61,0,0,1-4-4.35c-.26-.3-1.13-1.47-.2-.23l-1-1.35c-.73-1-1.43-2.09-2.1-3.17a72.23,72.23,0,0,1-3.57-6.51c-.58-1.2-1.15-2.4-1.66-3.63.4.95-.13-.34-.16-.43-.25-.66-.51-1.3-.74-2A36.63,36.63,0,0,1,16,172.88c-.1-.45-.59-1.77-.42-2.24-.3.82.18,1.76.08.53,0-.5-.09-1-.12-1.52a31.72,31.72,0,0,1,0-4c0-.35.07-.69.1-1,.11-1.5-.4,1.61-.08.64.22-.69.26-1.49.43-2.21a40.26,40.26,0,0,1,1.2-3.87c.68-1.93-.77,1.47.17-.38.33-.67.65-1.34,1-2a39,39,0,0,1,2.05-3.32c.24-.34.5-.67.73-1,.46-.68-.11-.4-.46.58a8.4,8.4,0,0,1,1.61-1.94,53,53,0,0,1,6.21-6,8.13,8.13,0,0,1,1-.83c-.08.05-1.56,1.16-.52.41.6-.43,1.19-.88,1.79-1.3q1.94-1.35,3.94-2.57A81.92,81.92,0,0,1,43,136.5a14.55,14.55,0,0,1,2.06-.92c-1.86.53-.28.12.63-.24,1.38-.54,2.78-1.05,4.18-1.53,2.79-.94,5.63-1.74,8.5-2.4,1.27-.28,2.55-.54,3.83-.77.66-.11,2.22-.33,2.6-.37a52.05,52.05,0,0,1,7.17-.29c1,0,2.67.2,2.92.25l.14,0a3.91,3.91,0,0,1,3.55,4.61l-.12.6c-.17.7-1,2.95-1.14,3.17-.4.77-.88,1.49-1.32,2.23a10.34,10.34,0,0,1-1,1.22,40.84,40.84,0,0,1-3.21,3c-.3.24-.84.67-1.17.89-.66.45-1.33.87-2,1.28-1.33.78-2.7,1.46-4.09,2.12-.32.16-2.07.83-2.84,1.09a55.64,55.64,0,0,1-6.21,1.77c-.83.18-1.67.36-2.51.48-4.16.59-6.45,5.88-5.43,9.57,1.23,4.47,5.39,6,9.57,5.43C68,166.18,80,160.55,87,151.93c5.32-6.54,9.21-16.22,6.91-24.72-1.54-5.67-6.41-9.29-11.71-11.14-10.87-3.79-24.2-1.16-34.81,2.19-13.18,4.16-26.44,11.08-35.76,21.5-10,11.15-14.39,25.89-9.76,40.45,6.08,19.1,19.8,36.7,39.68,42.27,15.68,4.4,32.6,1.27,47.61-4.16,9-3.25,17.59-7.16,25.34-12.75a124.63,124.63,0,0,0,25.91-25.42,99.15,99.15,0,0,0,15.47-27.82c3-8.84,3.74-18-.79-26.41-4-7.42-11-13-18.08-17.37A97.19,97.19,0,0,0,124.32,102.1Z"/></g></g></svg>